<svg width="26" height="26" viewBox="0 0 26 26" fill="none" xmlns="http://www.w3.org/2000/svg">
<path d="M13.0649 0.51034C13.0635 0.509048 13.0596 0.507755 13.0583 0.506463L13.0557 0.51034C12.9265 0.506463 12.7973 0.5 12.6667 0.5C5.77387 0.5 0.166748 6.10692 0.166748 13C0.166748 19.8918 5.77387 25.5 12.6667 25.5C19.5596 25.5 25.1667 19.8931 25.1667 13C25.1667 6.23993 19.7736 0.721117 13.0649 0.51034ZM18.6683 17.9932C19.1277 16.6865 19.4397 15.2065 19.4984 13.552H24.0407C23.9206 16.0673 22.9808 18.3717 21.4851 20.2035C21.0583 19.7434 20.104 18.8178 18.6683 17.9932ZM1.29594 12.4482C1.42516 9.7571 2.49151 7.30912 4.17264 5.42206C4.65687 5.98302 5.54965 6.87615 6.86531 7.65427C6.35368 9.036 6.00127 10.631 5.93601 12.4482L1.29594 12.4482ZM12.1423 2.13104L12.1345 8.08439C10.6204 8.01718 9.34261 7.64623 8.29593 7.16022C9.45758 4.61393 11.1463 2.95296 12.1423 2.13104ZM13.2465 9.18427C14.9211 9.09896 16.366 8.67242 17.5615 8.1244C18.0158 9.38204 18.3277 10.8206 18.3851 12.4478H13.2424L13.2465 9.18427ZM13.2478 8.08045L13.2557 2.02618C14.2463 2.83788 15.964 4.51043 17.1386 7.08911C16.0579 7.59448 14.7529 7.99386 13.2478 8.08045ZM7.2922 6.62378C6.1123 5.90125 5.33828 5.08955 4.95195 4.62812C6.56649 3.13654 8.6104 2.10509 10.8762 1.74578C9.79153 2.72293 8.34436 4.33089 7.2922 6.62378ZM7.87694 8.18257C9.0425 8.71768 10.4587 9.12094 12.1318 9.18817L12.1279 12.4467L7.04938 12.448C7.11464 10.8439 7.42662 9.42482 7.87694 8.18257ZM12.1268 13.5506L12.1229 16.4148C10.3948 16.5001 8.94339 16.9409 7.76476 17.5135C7.36407 16.3373 7.09649 15.015 7.0469 13.5517L12.1268 13.5506ZM12.1216 17.5186L12.1124 23.8985C11.0944 23.0234 9.32188 21.2281 8.16297 18.5487C9.22672 18.02 10.5435 17.6052 12.1216 17.5186ZM10.8229 24.2449C8.5205 23.8675 6.44907 22.796 4.82818 21.2527C5.04615 20.9567 5.82146 19.9912 7.17625 19.1122C8.22433 21.4995 9.71741 23.2082 10.8229 24.2449ZM13.2271 23.905L13.2362 17.5135C14.7934 17.5872 16.1416 17.9944 17.2525 18.5152C16.0557 21.2567 14.2204 23.0662 13.2271 23.905ZM13.2362 16.4097L13.2402 13.5506H18.3842C18.328 14.9983 18.0552 16.3063 17.6559 17.471C16.4355 16.9126 14.9554 16.4821 13.2362 16.4097ZM19.4999 12.448C19.4412 10.61 19.0901 8.99679 18.5772 7.6011C19.8784 6.85143 20.7843 6.01905 21.2568 5.52917C22.8844 7.40207 23.9142 9.80756 24.0408 12.4481L19.4999 12.448ZM20.4854 4.72501C20.0951 5.1283 19.2989 5.86889 18.1438 6.55522C17.1336 4.34885 15.7553 2.77316 14.6862 1.78446C16.9103 2.18514 18.9103 3.23214 20.4854 4.72501ZM1.29598 13.5505H5.93344C5.98435 15.2346 6.29892 16.7392 6.76357 18.0641C5.33173 18.9521 4.43638 19.9564 4.05393 20.4398C2.4407 18.5721 1.42128 16.1768 1.29598 13.5505ZM14.5348 24.2412C15.6442 23.2149 17.1817 21.4842 18.2533 19.0466C19.5808 19.8363 20.433 20.6984 20.7372 21.0319C19.09 22.6889 16.9375 23.8418 14.5348 24.2412Z" fill="black"/>
</svg>
