<svg width="300" height="303" viewBox="0 0 300 303" fill="none" xmlns="http://www.w3.org/2000/svg">
<g opacity="0.4" clip-path="url(#clip0_1067_2951)">
<path d="M250.822 132.533C251.058 131.549 251.078 130.782 251.117 130.624L250.822 132.533ZM244.424 133.34C244.247 132.1 244.424 132.592 244.424 132.199C244.424 131.884 244.03 130.723 243.479 128.951L243.322 135.82C243.322 135.82 244.621 134.6 244.424 133.36V133.34ZM243.518 125.29C243.361 125.29 242.377 125.428 243.085 127.692C243.223 128.144 243.341 128.558 243.479 128.932L243.558 125.271H243.518V125.29ZM237.061 134.58C237.1 134.265 236.785 133.97 236.293 133.557L237.061 136.765C237.061 136.765 236.963 135.25 237.061 134.58ZM213.732 209.863C213.358 212.343 217.729 214.233 219.264 216.91C220.8 219.606 223.851 217.303 225.781 221.121C227.671 224.959 222.906 223.995 225.781 226.672C228.635 229.348 236.51 219.763 236.51 219.763L213.732 209.883V209.863ZM216.016 207.147C216.587 206.006 217.729 206.281 218.221 205.573C218.713 204.864 221.331 203.427 223.615 202.916C224.954 202.64 226.312 202.68 227.218 202.758L195.798 197.562C195.798 197.562 197.077 201.558 197.373 202.699C197.668 203.841 197.373 204.726 197.373 205.711C197.373 206.695 197.51 208.742 199.105 212.599C199.282 213.052 199.44 213.426 199.538 213.662C200.365 215.611 199.44 212.599 201.822 212.619C204.558 212.658 202.53 211.3 202.826 210.434C203.121 209.568 203.259 209.726 205.129 208.427C206.98 207.128 206.566 208.86 207.708 211.418C208.85 214.016 209.578 211.556 210.72 211.418C211.645 211.3 212.63 210.552 213.752 209.824C214.047 209.647 214.323 209.43 214.618 209.273C216.055 208.427 215.484 208.269 216.055 207.108L216.016 207.147ZM198.416 152.274C199.558 150.385 199.184 147.688 196.782 144.244C194.4 140.8 196.132 139.658 196.782 137.926C197.451 136.214 198.593 135.82 201.861 138.32C205.109 140.819 207.59 140.032 212.571 139.855C217.532 139.678 215.032 135.663 212.748 133.301C210.464 130.939 213.713 131.451 216.39 130.88C219.067 130.309 218.674 130.309 221.371 127.81C222.296 126.944 222.985 126.57 223.556 126.452C223.576 126.452 223.635 126.452 223.674 126.452C223.93 126.373 224.343 126.117 224.166 125.35C224.088 124.956 223.93 124.444 223.792 123.913L224.855 117.123C224.56 116.886 224.206 116.552 223.832 115.981C221.942 113.107 218.674 111.572 218.674 111.572C218.674 111.572 220.406 107.931 215.602 108.325C210.819 108.718 206.625 110.824 206.625 110.824C206.625 110.824 203.751 108.325 202.983 109.092C202.215 109.86 198.396 104.506 197.058 105.097C195.719 105.668 192.825 107.006 193.041 108.344C193.219 109.663 195.522 110.844 194.754 112.93C194.282 114.229 193.534 115.607 192.687 115.922H192.667C192.156 116.099 191.624 115.883 191.112 115.017C189.773 112.733 189.006 111.218 189.399 109.683V109.643C189.773 108.108 192.451 106.396 192.254 105.077C192.077 103.739 191.112 105.077 188.828 106.612C186.525 108.128 182.883 104.88 180.973 108.896C179.083 112.911 177.154 117.693 175.815 117.123H175.796C174.477 116.512 173.335 112.911 171.996 112.34C170.658 111.769 168.551 113.088 166.051 113.285C163.59 113.481 156.877 114.052 156.109 108.896C155.361 103.739 156.877 102.774 157.074 99.3301C157.251 95.9055 160.145 97.2242 155.932 94.1735H155.912C151.699 91.1031 144.258 93.0319 141.974 92.4611C139.671 91.8904 135.458 89.4105 135.458 89.4105C135.458 89.4105 137.17 85.0214 138.706 83.683C140.241 82.3447 140.812 80.6127 143.293 78.9003C145.793 77.1683 146.364 73.9208 145.025 73.9208C143.687 73.9208 135.458 73.9208 135.064 76.5976C134.69 79.2743 133.922 85.0214 132.386 85.5922C130.851 86.1629 116.716 82.7186 115.751 78.1131C114.786 73.5075 114.215 74.6884 114.609 69.7089C114.983 64.7294 114.412 62.6234 114.412 62.6234C114.412 62.6234 114.767 62.0723 115.377 61.226L112.739 60.2026C112.739 60.2026 112.719 60.1829 112.7 60.1632H112.68C112.444 59.9073 112.188 59.5334 111.853 59.0413C110.554 57.1716 110.121 56.0103 106.971 52.2905C103.801 48.5509 105.376 53.432 97.777 50.8537C90.1582 48.236 95.9264 47.1141 91.8906 46.1104C87.8745 45.1066 89.0164 46.1104 80.7085 45.4018C72.381 44.6933 76.968 42.9613 73.385 41.9575C72.6369 41.741 71.9676 41.6426 71.3573 41.6426C70.8455 41.6426 70.373 41.7016 69.9792 41.8C69.5658 41.8984 69.2508 42.0362 68.9555 42.174C68.424 42.4692 68.1287 42.7448 68.0499 42.8038V42.8432C68.2665 43.0203 68.424 43.1974 68.483 43.3746C69.0539 44.9688 70.2155 59.7499 72.696 62.033C75.1962 64.3358 77.283 68.3312 79.0155 67.0125C80.7282 65.6741 80.7282 62.033 78.0508 59.927C75.3734 57.8211 72.1054 52.2708 72.1054 51.3064C72.1054 50.342 74.015 45.3821 74.5859 45.3821C74.6253 45.3821 74.6647 45.4018 74.7238 45.4215C75.59 45.7955 78.7792 48.9446 80.177 53.7863C81.6732 58.9429 81.8504 57.6243 85.0987 61.4425C88.3667 65.2608 88.9376 63.5485 89.6857 68.1344C90.4732 72.7202 90.6504 82.8761 95.6311 84.1948C100.612 85.5331 106.931 85.9071 109.589 89.3514C112.266 92.7957 109.018 93.3665 113.231 92.7957C117.444 92.225 119.925 91.8313 123.744 91.8313C127.563 91.8313 131.205 91.6542 131.599 93.9373C131.973 96.2401 132.544 99.6647 135.024 99.6647C137.505 99.6647 135.221 98.1295 139.611 99.6647C143.194 100.905 144.002 100.511 144.907 102.086C145.104 102.44 145.321 102.893 145.557 103.483C146.876 106.73 145.557 106.908 148.411 109.21C151.286 111.493 153.963 111.494 154.534 112.852C155.105 114.17 155.873 115.705 157.979 115.705C160.086 115.705 155.873 111.71 160.086 115.705C164.299 119.721 161.621 120.685 164.299 119.721C166.976 118.756 169.654 113.599 170.992 115.705C172.331 117.811 172.134 117.929 173.099 120.055C174.063 122.22 175.205 123.932 175.205 123.932C175.205 123.932 176.741 127.948 174.241 131.195C171.78 134.462 172.351 134.462 171.386 136.175C170.421 137.887 170.992 138.654 170.244 139.422C169.437 140.209 167.193 141.528 166.622 142.296C166.031 143.044 163.925 144.402 164.141 146.114C164.318 147.846 162.98 147.452 164.318 149.184C165.362 150.503 166.858 150.838 167.547 151.33C167.744 151.487 167.901 151.664 167.941 151.861C168.079 152.491 165.244 152.373 163.393 153.022L162.862 153.219C163.216 153.298 165.657 153.809 166.464 154.341C167.33 154.912 165.322 157.333 167.901 156.624C170.5 155.915 171.209 155.62 171.917 154.046C172.626 152.451 173.414 151.881 174.457 151.585C175.52 151.31 174.378 153.18 177.371 151.585C180.383 150.011 181.111 148.436 181.111 148.436L182.824 145.13C183.041 145.307 183.296 145.425 183.533 145.464L185.068 146.153C185.147 146.291 185.226 146.488 185.285 146.704C185.679 148.299 183.789 148.732 186.249 149.44C188.691 150.149 186.82 150.149 188.691 150.149C190.561 150.149 191.27 149.853 191.841 150.149C192.372 150.424 197.648 151.979 198.298 152.196C198.337 152.215 198.357 152.215 198.357 152.215L198.416 152.274ZM196.939 195.535C198.081 194.531 199.538 193.114 199.046 192.386C198.554 191.658 198.967 191.933 198.672 190.654C198.416 189.375 198.947 189.375 198.672 187.072C198.416 184.769 198.79 185.202 198.672 184.474C198.554 183.765 199.518 182.329 198.672 181.443C198.298 181.049 198.258 180.341 198.337 179.652L194.262 199.275V199.373C194.262 199.373 195.483 198.96 195.778 197.543C196.073 196.086 195.778 196.519 196.92 195.515L196.939 195.535ZM198.357 179.691L198.632 178.215C198.554 178.471 198.416 179.081 198.357 179.691ZM233.951 124.031C233.951 124.031 233.813 125.212 233.439 126.452C233.045 127.692 232.198 128.164 232.553 128.912C232.947 129.68 232.454 129.876 233.931 131.51C234.777 132.435 235.663 133.065 236.274 133.557L233.931 124.031H233.951ZM237.278 222.027L236.845 224.822C237.376 224.231 237.711 223.66 237.632 223.227C237.593 222.814 237.455 222.46 237.258 222.027H237.278ZM233.262 228.01C232.297 228.778 231.332 229.348 229.994 230.51C228.675 231.651 227.533 230.116 228.104 233.364C228.675 236.631 231.529 235.666 231.529 240.055C231.529 244.444 233.636 246.176 233.636 246.176L236.864 224.822C235.801 226.081 233.911 227.498 233.281 228.01H233.262ZM222.906 235.273C221.764 238.146 221.194 240.725 220.898 242.142C220.603 243.598 219.756 245.586 219.756 246.157C219.756 246.728 222.217 248.814 222.217 248.814L222.276 248.676L228.064 233.344C228.064 233.344 224.048 232.38 222.906 235.273Z" fill="#D0D2D3"/>
<path d="M227.218 202.759L195.798 197.563C196.093 196.107 195.798 196.54 196.939 195.536C198.081 194.532 199.538 193.115 199.046 192.387C198.554 191.659 198.967 191.934 198.672 190.655C198.416 189.376 198.947 189.376 198.672 187.073C198.416 184.77 198.79 185.203 198.672 184.475C198.554 183.766 199.518 182.33 198.672 181.444C198.298 181.05 198.258 180.342 198.337 179.653L198.613 178.177C198.534 178.433 198.396 179.043 198.337 179.653L194.262 199.276C194.301 196.225 192.608 197.288 191.703 196.048C190.738 194.729 183.67 193.371 181.761 192.8C179.851 192.23 175.638 189.73 174.103 187.644C172.567 185.538 175.815 184.77 175.717 183.629C175.619 182.487 175.245 181.719 174.28 178.275C173.335 174.831 174.28 178.275 173.906 173.866C173.512 169.477 172.567 173.473 169.89 170.619C167.212 167.745 167.586 167.568 166.051 163.927C164.515 160.286 163.944 161.821 162.98 160.66C162.035 159.518 162.035 157.412 161.838 154.736C161.798 154.047 162.212 153.574 162.842 153.24H162.881C163.236 153.299 165.677 153.811 166.484 154.342C167.35 154.913 165.342 157.334 167.921 156.625C170.52 155.917 171.228 155.621 171.937 154.047C172.646 152.453 173.433 151.882 174.477 151.587C175.54 151.311 174.398 153.181 177.39 151.587C180.402 150.012 181.131 148.437 181.131 148.437L182.844 145.131C183.06 145.308 183.316 145.426 183.552 145.465L185.088 146.154C185.167 146.292 185.245 146.489 185.304 146.705C185.698 148.3 183.808 148.733 186.269 149.441C188.71 150.15 186.84 150.15 188.71 150.15C190.581 150.15 191.289 149.855 191.86 150.15C192.392 150.425 197.668 151.98 198.317 152.197C198.357 152.216 198.377 152.216 198.377 152.216C197.235 154.125 196.506 154.696 195.522 154.893C194.557 155.09 191.112 154.519 189.773 156.428C188.454 158.357 188.061 159.125 187.293 160.64C186.545 162.175 185.009 163.12 185.403 164.478C185.797 165.797 188.257 169.261 189.616 169.832C190.955 170.402 191.9 170.028 193.061 172.902C194.203 175.776 189.222 176.523 194.951 177.311C196.487 177.508 197.687 177.803 198.672 178.078C201.389 178.826 202.294 179.397 203.003 177.311C203.968 174.437 209.125 171.19 210.267 172.331C211.409 173.473 208.338 180.558 210.09 181.326C211.803 182.074 215.071 180.735 218.221 183.786C221.39 186.856 223.674 186.856 224.639 191.049C225.603 195.28 230.368 190.872 229.797 195.851C229.226 200.811 228.084 202.543 227.867 204.826C227.69 207.129 222.316 206.755 226.903 209.412C231.49 212.089 232.061 210.947 233.419 212.856C234.758 214.765 236.293 214.175 236.293 217.442C236.293 218.347 236.372 219.076 236.49 219.686L213.713 209.805C214.008 209.628 214.283 209.412 214.579 209.254C216.016 208.408 215.445 208.251 216.016 207.089C216.587 205.948 217.729 206.223 218.221 205.515C218.713 204.806 221.331 203.37 223.615 202.858C224.954 202.582 226.312 202.622 227.218 202.7V202.759Z" fill="#D0D2D3"/>
<path d="M251.117 130.605L250.822 132.554C250.408 134.187 249.542 136.274 247.574 136.608C244.325 137.179 243.754 135.467 241.845 135.467C239.935 135.467 240.526 136.451 237.632 136.726C234.777 136.963 231.332 138.321 231.332 138.321C231.332 138.321 228.458 143.103 228.261 137.356C228.084 131.629 228.261 128.952 226.548 127.81C225.446 127.082 224.737 126.256 223.693 126.433C223.949 126.354 224.363 126.098 224.186 125.331C224.107 124.937 223.949 124.425 223.812 123.894L224.875 117.104C226.154 118.048 227.001 116.71 228.084 117.497C229.304 118.383 230.879 119.406 233.95 124.051C233.95 124.051 233.812 125.232 233.438 126.472C233.045 127.712 232.198 128.184 232.553 128.932C232.946 129.7 232.454 129.897 233.931 131.53C234.777 132.455 235.663 133.085 236.273 133.577L237.041 136.785C237.041 136.785 236.943 135.27 237.041 134.601C237.081 134.286 236.766 133.991 236.273 133.577L233.931 124.051L233.95 124.071C234.206 124.465 234.482 124.858 234.757 125.311C238.38 131.019 238.577 125.331 243.164 125.311H243.498C243.341 125.311 242.357 125.449 243.065 127.712C243.203 128.165 243.321 128.578 243.459 128.952L243.302 135.821C243.302 135.821 244.601 134.601 244.404 133.361C244.227 132.121 244.404 132.613 244.404 132.219C244.404 131.904 244.01 130.743 243.459 128.972L243.538 125.311H243.557C247.77 125.39 247.633 127.122 249.857 129.346C250.251 129.739 250.645 130.153 251.078 130.605H251.117Z" fill="#D0D2D3"/>
<path d="M196.684 220.354C197.077 222.952 197.648 225.314 195.778 227.125C193.928 228.955 193.042 230.668 193.042 232.99C193.042 235.312 194.498 235.273 193.042 239.288C191.604 243.303 192.175 245.882 190.463 247.889C188.75 249.916 189.321 247.318 187.588 251.629C185.994 255.604 185.423 257.14 185.364 257.336C185.541 257.199 186.427 256.569 185.364 260.23C184.183 264.245 183.612 268.85 183.612 268.85C183.612 268.85 184.753 267.689 182.155 272.57C179.576 277.451 179.3 280.03 178.139 282.037C176.997 284.064 176.702 284.635 176.702 285.482V288.06C176.702 290.363 174.694 285.777 176.702 290.363C178.729 294.949 182.332 295.519 182.332 295.519C182.411 297.015 183.139 298.216 184.045 298.019C185.777 297.625 193.809 299.731 189.99 300.499C186.151 301.247 187.116 302.211 187.116 302.211C187.116 302.211 182.903 302.782 180.796 302.211C178.69 301.64 175.442 300.676 175.442 300.676C175.442 300.676 174.103 297.232 172.567 294.378C171.032 291.504 171.996 289.969 171.996 289.969C171.996 289.969 172.39 286.328 172.39 283.1C172.39 279.872 170.481 280.994 171.622 280.03C172.764 279.065 174.497 280.994 174.497 280.994C174.497 280.994 175.245 280.03 175.638 279.459C176.032 278.888 176.977 278.494 177.174 277.53C177.351 276.566 178.513 274.46 179.674 271.409C180.816 268.339 179.477 269.874 177.745 265.485C176.032 261.076 177.745 261.647 177.922 257.829C178.119 254.01 179.458 252.672 181.564 250.566C183.69 248.46 186.939 241.768 186.939 241.197C186.939 240.627 186.762 238.324 186.762 235.253C186.762 232.183 186.939 231.041 188.651 227.991C190.384 224.92 189.99 224.743 190.384 220.905C190.758 217.087 191.9 217.658 192.845 213.072C193.809 208.486 193.809 204.097 194.183 200.062C194.203 199.806 194.223 199.57 194.223 199.373C194.223 199.373 195.463 198.96 195.758 197.543C195.758 197.543 197.038 201.538 197.333 202.68C197.629 203.821 197.333 204.707 197.333 205.691C197.333 206.675 197.471 208.722 199.066 212.6C199.243 213.052 199.4 213.407 199.499 213.662C199.499 213.662 196.27 217.756 196.664 220.335L196.684 220.354Z" fill="url(#paint0_linear_1067_2951)"/>
<path d="M136.245 -0.141827C135.064 0.507675 133.548 0.527358 131.855 -0.240234L136.245 -0.141827Z" fill="#D0D2D3"/>
<path d="M194.085 9.61966L172.548 11.2139C174.654 9.63935 176.997 10.0723 177.43 9.61966C177.863 9.18666 181.151 9.20635 182.017 8.63557C182.884 8.04512 184.596 6.7658 185.01 6.03757C185.443 5.32902 189.183 6.03757 190.739 6.03757C192.294 6.03757 194.066 9.59999 194.066 9.59999L194.085 9.61966Z" fill="#D0D2D3"/>
<path d="M213.516 -11.2608C212.374 -14.3115 209.126 -13.7407 209.126 -13.7407L204.342 -13.5439C204.342 -13.5439 202.039 -10.1193 200.7 -10.8672C199.361 -11.6545 203.948 -15.6499 204.696 -15.8467C205.464 -16.0238 203.161 -17.1654 201.271 -18.8974C199.361 -20.6097 193.416 -24.6248 191.309 -26.9276C189.203 -29.2304 185.777 -31.9071 184.813 -30.9427C183.848 -29.9783 185.954 -25.9829 183.671 -25.3924C181.367 -24.8216 180.009 -25.9829 178.867 -25.786C177.725 -25.6089 178.69 -26.1797 176.19 -29.4075C173.709 -32.6747 175.619 -30.7459 170.835 -33.4226C166.031 -36.0993 164.712 -36.0993 162.212 -35.5286C159.732 -34.9578 159.141 -31.8874 160.873 -31.7103C162.606 -31.5135 164.712 -31.8874 163.354 -30.1751C162.035 -28.4431 157.802 -26.3371 159.732 -25.5892C161.641 -24.8019 169.496 -23.6604 168.158 -20.8065C166.819 -17.933 165.46 -19.4682 163.925 -16.9686C162.389 -14.4887 163.925 -11.4183 163.925 -10.2767C163.925 -9.13519 167.193 -6.63559 161.641 -7.77714C156.09 -8.93837 152.447 -9.31232 152.644 -12.363C152.841 -15.4137 155.715 -19.2713 151.699 -18.8777C147.683 -18.4841 144.789 -17.5393 142.309 -20.0193C139.848 -22.5189 134.67 -23.2668 134.67 -23.2668C134.67 -23.2668 127.189 -21.5544 128.725 -27.1047C130.26 -32.655 135.241 -35.5089 136.206 -35.9025C137.151 -36.2962 124.532 -36.8669 129.69 -38.5793C134.848 -40.2916 134.67 -39.7208 138.096 -40.2916C141.541 -40.8623 140.202 -38.7564 141.541 -40.8623L142.88 -42.988C142.88 -42.988 143.057 -44.3067 144.77 -45.0939C146.502 -45.8419 147.644 -47.377 148.786 -46.4126C149.928 -45.4482 155.656 -46.0387 153.196 -48.7154C150.695 -51.3921 148.018 -56.9424 145.911 -53.4981C143.805 -50.0538 143.234 -46.9834 142.486 -46.8063C141.699 -46.6291 140.183 -50.4277 140.183 -50.4277C140.183 -50.4277 138.982 -49.5617 138.391 -48.7351C138.588 -47.7904 138.568 -47.2196 138.293 -47.4755C137.899 -47.7904 138.056 -48.243 138.391 -48.7351C137.879 -51.0576 135.97 -55.7615 133.489 -56.1748C130.064 -56.7456 127.288 -54.5609 129.099 -53.321C130.91 -52.081 132.839 -50.6246 131.875 -49.8766C130.91 -49.0894 129.768 -51.4118 129.768 -48.9122C129.768 -46.4126 131.658 -44.8184 129.001 -45.3892C126.323 -45.9599 129.276 -45.4679 125.477 -47.4951C121.638 -49.5027 119.826 -47.9675 116.854 -48.9319C113.901 -49.8963 108.625 -50.6442 109.688 -48.8335C110.731 -47.0228 111.873 -44.4444 109.865 -44.8381C107.857 -45.212 108.802 -47.1212 103.939 -49.1287C99.0569 -51.156 100.1 -49.424 96.3598 -51.3331C92.639 -53.2422 90.1585 -53.0651 90.1585 -53.0651C90.1585 -53.0651 90.631 -52.0023 88.6229 -52.8683C86.5952 -53.7343 85.3746 -53.9311 84.6068 -54.5019C83.8587 -55.0727 84.213 -56.785 82.1262 -55.6434C80.0198 -54.5019 82.52 -53.8327 78.0314 -53.6359C73.5428 -53.4391 75.354 -54.2854 71.5151 -53.5375C67.6958 -52.7699 65.5893 -52.4746 62.5379 -52.4746H59.4667C59.4667 -52.4746 55.8247 -53.0651 52.2811 -54.3838C48.7571 -55.7222 48.1862 -55.6237 46.5522 -56.6866C44.9379 -57.7297 44.4457 -58.9697 41.0202 -57.3361C37.575 -55.7222 41.4927 -55.3285 37.2797 -54.8758C33.0667 -54.3838 36.2166 -54.9546 32.1218 -54.5806C28.0072 -54.187 27.9088 -56.2929 25.9007 -54.187C23.8927 -52.081 21.4122 -54.0886 18.8135 -51.8842C18.8135 -51.8842 18.8135 -50.4474 21.4122 -47.8888C23.9911 -45.2908 19.6994 -47.0031 18.8135 -46.7275C17.9473 -46.4323 19.4041 -45.0152 17.5339 -44.4444C15.6833 -43.8737 12.2184 -46.019 9.22602 -45.7238C6.21394 -45.4285 4.48151 -42.7321 5.91864 -42.4172C7.35578 -42.122 16.0967 -43.1454 14.9549 -41.4134C13.813 -39.7011 14.2462 -39.5633 12.0806 -39.4059C9.93475 -39.2681 7.49359 -39.7011 6.33207 -39.4059C5.19023 -39.1107 5.62334 -39.1107 1.74504 -37.6936C-2.13326 -36.2371 -2.56637 -35.8238 -2.56637 -34.387C-2.56637 -32.9502 0.307905 -34.5248 0.878822 -33.1077C1.44974 -31.6512 -0.538628 -28.5218 0.0126028 -28.5218C0.563833 -28.5218 7.88732 -30.2341 6.74549 -28.5218C5.6824 -26.7898 -8.94489 -21.1805 -7.96055 -20.6097C-6.95652 -20.0389 0.366965 -20.0389 0.504773 -20.6097C0.64258 -21.1805 4.38307 -23.7785 6.52893 -24.2115C8.6748 -24.6445 13.124 -26.0616 14.8564 -28.3644C16.5692 -30.6475 24.7589 -36.2371 25.192 -33.954C25.6251 -31.6512 18.8726 -29.2107 20.1719 -28.9351C21.4515 -28.6399 25.4873 -33.6588 30.35 -32.5369C35.2323 -31.3757 33.0667 -29.3681 37.516 -30.5097C40.1737 -31.1789 41.8667 -31.5725 42.8708 -31.4151C43.5598 -31.297 43.9339 -30.923 44.111 -30.2341C44.5638 -28.5218 47.7137 -30.5294 49.584 -27.8133C51.4345 -25.0775 51.8676 -22.2039 51.8676 -20.1964C51.8676 -18.1888 53.1473 -20.4916 52.8717 -17.6181C52.5764 -14.7445 48.2846 -13.17 51.592 -12.737C54.8994 -12.304 55.3325 -18.1888 56.179 -14.3115C57.0453 -10.4342 54.7222 -9.43042 56.179 -7.71809C57.5374 -6.04514 63.5813 -6.91114 63.1482 -2.01035L131.835 -0.258671C133.528 0.528603 135.044 0.489243 136.226 -0.160259C137.446 -0.986897 138.627 -1.40022 139.828 -1.69545C142.269 -2.2859 145.419 -4.72645 147.88 -1.69545C150.302 1.2962 147.742 2.73298 152.251 3.61866C156.779 4.48466 157.92 3.61866 159.358 4.76021C160.795 5.90176 164.102 5.88206 162.96 7.83057C161.818 9.79876 156.936 11.9244 157.231 13.0659C157.507 14.2272 157.802 15.3687 159.239 15.0932C160.677 14.8176 163.551 15.0932 164.397 13.3612C165.264 11.6489 169.418 10.6451 169.418 10.6451L172.587 11.2159C174.694 9.6413 177.036 10.0743 177.469 9.62162C177.903 9.18862 181.19 9.20831 182.056 8.63753C182.923 8.04707 184.635 6.76775 185.049 6.03952C185.482 5.33097 189.222 6.03952 190.778 6.03952C192.333 6.03952 194.105 9.60194 194.105 9.60194C194.262 9.5429 194.439 9.46417 194.617 9.38544C196.723 8.42103 199.775 8.2439 201.507 8.2439C203.239 8.2439 207.452 7.27948 207.452 7.27948C207.452 7.27948 202.865 6.70871 201.704 6.70871C200.542 6.70871 198.278 6.31507 196.743 4.03197C195.207 1.7292 195.404 2.69361 195.207 1.7292C195.01 0.764786 198.456 0.410515 198.456 -0.553898C198.456 -1.51831 198.278 -2.2859 194.439 -2.2859C190.601 -2.2859 184.891 1.7292 184.891 1.7292L180.875 4.79957C180.875 4.79957 186.427 -1.89227 188.14 -3.21095C189.852 -4.54932 189.478 -4.37218 191.585 -5.31691C193.691 -6.28132 202.098 -4.569 205.346 -5.90736C208.614 -7.22605 207.078 -6.28132 208.614 -7.22605C210.15 -8.19046 214.737 -8.19046 213.575 -11.2411L213.516 -11.2608Z" fill="#D0D2D3"/>
<path d="M187.706 13.0267C191.722 10.5861 192.412 10.3696 194.105 9.62171C194.105 9.62171 192.372 6.0593 190.778 6.0593C189.183 6.0593 185.462 5.35075 185.049 6.0593C184.616 6.76785 182.903 8.06685 182.056 8.65731C181.17 9.22808 177.883 9.2084 177.469 9.6414C177.036 10.0941 174.693 9.66108 172.587 11.2356C169.988 13.0857 169.28 14.1092 165.539 14.9752C161.818 15.8412 163.255 20.8601 157.664 17.9668C152.073 15.113 157.526 9.79886 152.349 9.93663C147.191 10.0744 147.762 11.9639 147.329 14.3847C146.896 16.8056 143.588 17.8291 143.155 14.3847C142.722 10.9404 141.875 9.36585 143.155 8.2243C144.435 7.06307 146.896 9.09031 146.896 5.78376C146.896 2.4772 142.88 2.77243 141.305 3.50066C139.71 4.2092 129.807 8.38176 132.406 4.2092C133.705 2.08356 135.005 0.745193 136.265 -0.140491C135.084 0.509011 133.568 0.528694 131.875 -0.238899L63.1873 -1.99058C63.1873 -1.79376 63.148 -1.57727 63.1086 -1.38045C62.1046 4.2092 60.1162 -4.39177 58.5216 -3.11245C56.9466 -1.81345 57.8129 3.50066 57.675 4.93744C57.5372 6.37421 55.5292 5.50821 55.5292 6.94499C55.5292 8.38176 56.8088 8.24399 55.5292 10.5468C54.2299 12.8299 53.3636 11.9835 53.3636 15.1326C53.3636 18.2817 52.7927 17.278 52.6549 20.1515C52.5171 23.0054 52.2218 24.3241 55.5292 27.0402C58.8169 29.7759 57.1041 35.6608 59.25 37.9439C61.1399 39.9712 66.475 41.4276 68.1287 42.8447H68.1484C68.3059 42.6676 70.0384 41.0143 73.4639 41.959C77.0665 42.9628 72.4598 44.6948 80.7873 45.4033C89.0952 46.1119 87.9533 45.1278 91.9695 46.1119C95.9856 47.1157 90.237 48.2572 97.8558 50.8552C105.455 53.4336 103.88 48.5524 107.05 52.292C110.199 56.0316 110.633 57.1731 111.932 59.0429C112.286 59.5546 112.542 59.9286 112.798 60.1844L115.475 61.2276C116.932 59.1807 119.787 55.5198 122.366 54.024C126.028 51.8984 126.382 50.7568 132.131 52.1149C137.879 53.4335 142.663 53.6501 142.663 53.6501C142.663 53.6501 141.698 50.3829 139.789 50.3829C137.879 50.3829 133.292 51.3473 136.363 50.0089C139.395 48.6705 142.092 46.7417 145.163 48.0998C148.234 49.4381 153.392 50.3829 155.499 51.1505C157.605 51.8984 159.495 66.6401 163.905 64.7309C168.315 62.8415 159.692 54.0437 160.854 50.3829C161.995 46.7417 157.999 45.6002 164.102 42.9431C170.224 40.2664 171.76 40.0696 173.296 36.9992C174.831 33.9485 171.583 28.3982 171.189 26.4891C170.795 24.5799 172.331 23.0447 172.528 24.0092C172.705 24.9736 176.741 29.5594 178.06 28.8115C179.399 28.0439 174.989 22.2968 176.347 22.2968C177.705 22.2968 179.399 25.1704 179.595 24.5799C179.792 24.0092 180.56 19.4233 182.667 19.0493C184.773 18.6557 187.076 19.7972 187.254 17.8881C187.45 15.9986 183.434 15.7821 187.824 13.1054L187.706 13.0267Z" fill="#E6E7E8"/>
<path d="M111.853 59.0024C112.207 59.5141 112.463 59.8881 112.719 60.1439L74.7827 45.4022L68.1089 42.8042C68.2664 42.6074 69.9988 40.9541 73.4243 41.8988C77.027 42.9026 72.4203 44.6346 80.7478 45.3432C89.0556 46.0517 87.9138 45.0676 91.9299 46.0517C95.946 47.0555 90.1975 48.197 97.8163 50.795C105.415 53.3734 103.84 48.4923 107.01 52.2318C110.16 55.9714 110.593 57.1129 111.892 58.9827L111.853 59.0024Z" fill="#D0D2D3"/>
<path d="M115.397 61.1877C113.881 60.9318 113.388 60.8531 112.719 60.1445L115.397 61.1877Z" fill="#D0D2D3"/>
<path d="M144.967 102.106C144.967 102.106 146.148 99.1538 148.156 98.4256C150.164 97.717 151.168 99.1341 152.9 97.5596C154.613 95.985 155.952 94.1152 155.952 94.1152L144.967 102.086V102.106Z" fill="#D0D2D3"/>
<path d="M175.855 117.084C175.855 117.084 173.591 118.757 173.178 120.095L175.855 117.084Z" fill="#D0D2D3"/>
<path d="M189.419 109.623C189.419 109.623 186.545 111.926 187.509 114.406C188.474 116.886 189.419 117.043 189.419 118.598C189.419 120.153 193.435 121.727 194.971 122.18C196.506 122.633 200.129 121.491 200.897 123.774C201.664 126.077 199.932 128.754 202.432 132.375C204.913 136.016 206.251 138.3 206.251 138.3L205.306 139.835L189.419 109.623Z" fill="#D0D2D3"/>
<path d="M236.845 224.822L233.616 246.177C233.616 246.177 231.51 244.465 231.51 240.056C231.51 235.647 228.655 236.631 228.084 233.364C227.513 230.117 228.655 231.652 229.974 230.51C231.313 229.369 232.277 228.798 233.242 228.011C233.872 227.499 235.782 226.102 236.845 224.822Z" fill="#E6E7E8"/>
<path d="M237.632 223.228C237.691 223.661 237.377 224.232 236.845 224.822L237.278 222.027C237.455 222.46 237.613 222.834 237.652 223.228H237.632Z" fill="#F1F1F2"/>
<path d="M286.79 183.824C281.061 189.571 285.648 190.516 284.506 194.354C283.365 198.172 275.706 211.95 273.423 213.485C271.119 215.02 267.674 214.803 264.603 214.803C261.532 214.803 253.697 221.318 252.358 222.283C250.98 223.247 251.413 224.388 252.181 226.672C252.949 228.974 251.216 233.363 244.523 235.666C237.849 237.949 235.152 244.858 233.616 246.176L236.845 224.821C237.376 224.231 237.711 223.66 237.632 223.227C237.593 222.814 237.455 222.46 237.258 222.027C237.022 221.416 236.707 220.728 236.51 219.744C236.392 219.133 236.313 218.405 236.313 217.5C236.313 214.233 234.778 214.823 233.439 212.914C232.1 210.985 231.51 212.146 226.923 209.47C222.336 206.793 227.69 207.187 227.887 204.884C228.084 202.601 229.226 200.869 229.817 195.909C230.387 190.929 225.604 195.338 224.659 191.106C223.694 186.895 221.41 186.895 218.241 183.844C215.091 180.773 211.823 182.132 210.11 181.384C208.378 180.616 211.429 173.531 210.287 172.389C209.145 171.247 203.987 174.495 203.023 177.369C202.314 179.474 201.408 178.904 198.692 178.136C197.707 177.861 196.506 177.565 194.971 177.369C189.242 176.601 194.223 175.833 193.081 172.96C191.919 170.106 190.974 170.46 189.636 169.889C188.297 169.319 185.817 165.874 185.423 164.536C185.029 163.198 186.565 162.233 187.313 160.698C188.08 159.182 188.474 158.415 189.793 156.486C191.132 154.597 194.597 155.167 195.542 154.951C196.526 154.774 197.255 154.203 198.396 152.274C199.538 150.385 199.164 147.688 196.762 144.244C194.38 140.8 196.113 139.658 196.762 137.926C197.432 136.214 198.574 135.82 201.842 138.32C205.09 140.819 207.57 140.032 212.551 139.855C217.512 139.678 215.012 135.663 212.728 133.301C210.445 130.939 213.693 131.451 216.37 130.88C219.048 130.309 218.654 130.309 221.351 127.81C222.276 126.944 222.966 126.57 223.536 126.452C223.556 126.452 223.615 126.452 223.655 126.452C224.698 126.294 225.407 127.101 226.509 127.829C228.222 128.971 228.045 131.648 228.222 137.375C228.399 143.122 231.293 138.339 231.293 138.339C231.293 138.339 234.738 137.001 237.593 136.745C240.467 136.45 239.896 135.486 241.806 135.486C243.715 135.486 244.306 137.198 247.535 136.627C249.503 136.273 250.37 134.206 250.783 132.573C251.019 131.588 251.039 130.821 251.078 130.663C253.008 132.789 254.917 135.466 255.409 138.93C255.98 143.142 249.858 145.622 249.68 146.586C249.484 147.55 252.358 148.889 254.071 148.889C255.783 148.889 260.37 145.228 264.78 145.051C269.17 144.874 268.6 151.743 271.474 152.884C274.328 154.045 276.632 149.637 278.738 153.081C280.845 156.506 287.715 154.046 289.822 154.4C291.948 154.793 290.216 156.132 292.696 159.202C295.177 162.273 296.712 157.864 298.248 159.95C299.783 162.056 299.961 168.354 299.961 168.354C299.961 168.354 292.499 178.116 286.751 183.844L286.79 183.824Z" fill="#E6E7E8"/>
<path d="M251.118 130.625C251.098 130.782 251.059 131.57 250.822 132.535L251.118 130.625Z" fill="#D0D2D3"/>
<path d="M223.694 126.412C223.694 126.412 223.596 126.412 223.576 126.412C223.497 126.412 223.438 126.412 223.419 126.412L223.832 123.834C223.97 124.365 224.127 124.877 224.206 125.271C224.383 126.038 223.97 126.294 223.714 126.373L223.694 126.412Z" fill="#D0D2D3"/>
<path d="M224.876 117.084L223.813 123.874C223.557 122.792 223.301 121.453 223.498 120.095C223.773 118.029 224.876 117.084 224.876 117.084Z" fill="#D0D2D3"/>
<path d="M236.293 133.557C235.683 133.065 234.778 132.435 233.951 131.51C232.454 129.877 232.947 129.7 232.573 128.912C232.199 128.164 233.065 127.692 233.459 126.452C233.833 125.212 233.97 124.031 233.97 124.031L236.313 133.557H236.293Z" fill="#D0D2D3"/>
<path d="M237.061 136.765L236.293 133.557C236.785 133.97 237.12 134.265 237.061 134.58C236.962 135.249 237.061 136.765 237.061 136.765Z" fill="#D0D2D3"/>
<path d="M243.558 125.291L243.479 128.952C243.361 128.558 243.243 128.165 243.086 127.712C242.377 125.448 243.342 125.311 243.519 125.311H243.558V125.291Z" fill="#D0D2D3"/>
<path d="M243.322 135.801L243.479 128.932C244.03 130.703 244.424 131.845 244.424 132.179C244.424 132.573 244.247 132.081 244.424 133.321C244.621 134.561 243.322 135.781 243.322 135.781V135.801Z" fill="#D0D2D3"/>
<path d="M170.343 139.482C170.736 139.561 173.296 140.23 174.181 141.234L170.343 139.482Z" fill="#D0D2D3"/>
<path d="M174.181 141.232L181.072 144.382C180.147 144.126 179.123 143.988 178.414 144.067C177.134 144.204 177.272 143.909 176.839 144.047C176.406 144.185 174.555 143.338 174.496 141.882C174.496 141.665 174.378 141.429 174.162 141.232H174.181Z" fill="#D0D2D3"/>
<path d="M181.111 144.383C181.82 144.58 182.45 144.875 182.844 145.17L181.111 144.383Z" fill="#D0D2D3"/>
<path d="M182.864 145.189L183.573 145.524C183.317 145.485 183.08 145.386 182.864 145.189Z" fill="#D0D2D3"/>
<path d="M185.128 146.212L183.592 145.523C184.163 145.661 184.754 145.622 185.128 146.212Z" fill="#D0D2D3"/>
<path d="M198.357 152.255C197.707 152.058 192.431 150.484 191.9 150.208C191.329 149.913 190.62 150.208 188.75 150.208C186.88 150.208 188.75 150.208 186.309 149.5C183.848 148.791 185.738 148.358 185.344 146.764C185.285 146.547 185.206 146.351 185.128 146.213L198.357 152.255Z" fill="#D0D2D3"/>
<path d="M182.864 145.189L181.151 148.496C181.151 148.496 180.442 150.071 177.41 151.645C174.418 153.239 175.56 151.37 174.497 151.645C173.453 151.94 172.686 152.511 171.957 154.105C171.248 155.68 170.52 155.955 167.941 156.684C165.362 157.392 167.37 154.971 166.504 154.401C165.716 153.869 163.256 153.357 162.901 153.279H162.862L167.587 151.389L182.844 145.229L182.864 145.189Z" fill="#D0D2D3"/>
<path d="M198.652 178.215L198.376 179.691C198.436 179.081 198.573 178.49 198.652 178.215Z" fill="#D0D2D3"/>
<path d="M196.939 195.535C195.797 196.539 196.093 196.106 195.797 197.563C195.522 198.999 194.262 199.393 194.262 199.393V199.295L198.357 179.672C198.278 180.361 198.317 181.089 198.691 181.463C199.538 182.349 198.573 183.766 198.691 184.494C198.79 185.202 198.416 184.789 198.691 187.092C198.967 189.375 198.435 189.375 198.691 190.674C198.967 191.953 198.573 191.678 199.065 192.406C199.558 193.115 198.101 194.551 196.959 195.555L196.939 195.535Z" fill="#D0D2D3"/>
<path d="M227.218 202.758C226.312 202.68 224.974 202.64 223.615 202.916C221.332 203.427 218.713 204.864 218.221 205.573C217.729 206.281 216.587 206.006 216.016 207.147C215.445 208.309 216.016 208.446 214.579 209.312C214.284 209.47 214.008 209.686 213.713 209.863C212.61 210.592 211.606 211.34 210.681 211.458C209.539 211.595 208.811 214.056 207.669 211.458C206.527 208.879 206.96 207.147 205.09 208.466C203.2 209.745 203.062 209.608 202.787 210.474C202.491 211.32 204.519 212.698 201.783 212.658C199.401 212.639 200.326 215.63 199.499 213.701C199.401 213.465 199.263 213.091 199.066 212.639C197.471 208.761 197.333 206.734 197.333 205.75C197.333 204.766 197.629 203.88 197.333 202.739C197.038 201.597 195.759 197.602 195.759 197.602L227.179 202.798L227.218 202.758Z" fill="#D0D2D3"/>
<path d="M236.51 219.744C236.51 219.744 228.635 229.329 225.781 226.652C222.907 223.975 227.671 224.94 225.781 221.102C223.871 217.283 220.8 219.586 219.265 216.89C217.729 214.213 213.359 212.343 213.733 209.844L236.51 219.724V219.744Z" fill="#D0D2D3"/>
<path d="M236.51 219.743C236.51 219.743 228.636 229.329 225.761 226.652C222.887 223.975 227.651 224.939 225.761 221.101C223.852 217.283 220.781 219.586 219.245 216.89C217.71 214.213 213.339 212.343 213.713 209.843C212.611 210.572 211.607 211.32 210.681 211.438C209.54 211.575 208.811 214.036 207.65 211.438C206.508 208.859 206.941 207.127 205.071 208.426C203.2 209.706 203.043 209.568 202.767 210.434C202.492 211.28 204.5 212.658 201.763 212.619C199.381 212.619 200.306 215.591 199.48 213.662C199.48 213.662 196.251 217.756 196.645 220.334C197.038 222.932 197.609 225.294 195.739 227.104C193.889 228.935 193.003 230.647 193.003 232.97C193.003 235.292 194.459 235.253 193.003 239.268C191.566 243.283 192.136 245.861 190.424 247.869C188.711 249.896 189.282 247.298 187.549 251.608C185.955 255.584 185.384 257.119 185.325 257.316C185.502 257.178 186.388 256.549 185.325 260.209C184.144 264.224 183.573 268.83 183.573 268.83C183.573 268.83 184.715 267.669 182.116 272.55C179.537 277.431 179.261 280.009 178.1 282.017C176.958 284.044 176.663 284.615 176.663 285.461V288.04C176.663 290.342 174.655 285.756 176.663 290.342C178.69 294.928 182.293 295.499 182.293 295.499V295.42C182.254 294.594 182.391 293.688 182.844 292.862C182.864 292.842 182.864 292.803 182.884 292.783C183.14 292.291 183.514 291.838 184.025 291.484C186.9 289.378 187.668 290.342 190.916 287.272C194.164 284.202 194.912 283.828 195.306 283.257C195.7 282.686 195.306 283.08 196.448 281.722C197.609 280.403 198.357 278.1 198.357 278.1C198.357 278.1 197.038 274.676 197.609 273.711C198.18 272.747 199.893 272.747 200.09 270.66C200.267 268.751 199.499 265.858 199.381 265.366C199.499 265.622 200.267 266.468 203.535 264.343C207.374 261.843 208.122 260.505 208.319 259.934C208.516 259.363 210.819 256.489 210.819 256.489C210.819 256.489 214.658 257.06 216.371 256.489C218.084 255.919 221.726 255.171 222.297 253.242C222.71 251.923 221.824 249.896 222.178 248.814C222.178 248.814 219.718 246.727 219.718 246.157C219.718 245.586 220.584 243.578 220.859 242.141C221.135 240.705 221.726 238.146 222.868 235.272C224.009 232.399 228.025 233.363 228.025 233.363L222.238 248.695C222.434 248.282 222.848 248.046 223.635 248.105C226.51 248.282 232.042 247.534 233.577 246.196C233.577 246.196 231.471 244.484 231.471 240.075C231.471 235.666 228.616 236.65 228.045 233.383C227.474 230.135 228.616 231.671 229.935 230.529C231.274 229.388 232.238 228.817 233.203 228.03C233.833 227.518 235.743 226.12 236.806 224.841L237.239 222.046C237.003 221.436 236.688 220.747 236.491 219.763L236.51 219.743Z" fill="#BBBDBF"/>
<path d="M182.883 292.881L182.352 295.44C182.293 294.613 182.43 293.707 182.883 292.881Z" fill="#D0D2D3"/>
<path d="M228.065 233.364L222.277 248.697L222.218 248.834C222.218 248.834 219.757 246.748 219.757 246.177C219.757 245.607 220.623 243.599 220.899 242.162C221.175 240.725 221.765 238.167 222.907 235.293C224.049 232.42 228.065 233.384 228.065 233.384V233.364Z" fill="#BBBDBF"/>
<path d="M153.077 74.4329C153.353 75.5548 154.416 75.5745 155.952 74.4329C157.487 73.2914 158.432 73.0946 158.432 73.0946C158.432 73.0946 161.385 73.6063 162.881 74.0196C164.378 74.4329 170.303 74.9447 170.303 74.9447C170.874 77.5033 169.536 77.3065 170.303 78.448C171.071 79.5896 174.694 81.1248 175.855 81.3216C176.997 81.5184 179.497 80.7508 180.245 81.3216C181.013 81.8924 182.883 81.361 182.883 81.361C182.883 81.361 185.6 81.5184 184.36 80.554C183.119 79.6093 183.887 79.6683 181.013 77.3458C178.139 75.0037 175.855 73.0946 175.855 73.0946C175.855 73.0946 173.945 73.0946 171.839 72.1302C169.732 71.1657 166.681 69.8471 166.681 69.8471C163.63 69.8471 164.673 69.4731 162.901 69.8471C161.149 70.221 159.22 69.6699 159.22 69.6699C159.22 69.6699 159.22 70.6146 157.881 71.1854C156.542 71.7562 152.329 71.3822 153.097 74.4329H153.077Z" fill="#D0D2D3"/>
<path d="M182.883 84.7664C183.296 88.4272 185.403 82.8573 187.332 85.908C189.242 88.9783 185.048 92.029 192.49 89.7262C199.951 87.4235 202.255 88.3879 201.29 86.2819C200.325 84.176 198.219 83.2115 196.801 82.4636C195.364 81.696 190.777 82.2275 189.813 81.578C188.848 80.9285 182.647 82.6604 182.883 84.7467V84.7664Z" fill="#D0D2D3"/>
<path d="M66.5145 41.8529C68.8523 39.459 62.1716 34.4119 58.721 32.4011C58.3961 32.2117 58.0019 32.454 58.0244 32.8294C58.4218 39.4786 63.5817 41.6161 66.1455 41.974C66.2801 41.9928 66.4195 41.9502 66.5145 41.8529Z" fill="url(#paint1_linear_1067_2951)" stroke="url(#paint2_linear_1067_2951)" stroke-width="0.25"/>
</g>
<line x1="135" y1="115.5" x2="244" y2="115.5" stroke="#DC1414" stroke-dasharray="10 10"/>
<path d="M139.628 112.08V113H136.089V112.08H139.628ZM136.282 104.469V113H135.204V104.469H136.282ZM142.636 104.469V113H141.558V104.469H142.636ZM141.493 103.836L142.63 102.113H143.937L142.366 103.836H141.493ZM150.689 104.469V113H149.605L146.189 106.42V113H145.111V104.469H146.189L149.623 111.066V104.469H150.689ZM157.74 112.08V113H154.037V112.08H157.74ZM154.23 104.469V113H153.152V104.469H154.23ZM157.242 108.137V109.057H154.037V108.137H157.242ZM157.682 104.469V105.395H154.037V104.469H157.682ZM162.483 105.225L160.151 113H159.049L161.797 104.469H162.489L162.483 105.225ZM164.37 113L162.038 105.225L162.026 104.469H162.723L165.471 113H164.37ZM164.37 109.842V110.768H160.256V109.842H164.37ZM172.53 113H171.077L171.089 112.08H172.53C173.042 112.08 173.458 111.982 173.779 111.787C174.099 111.588 174.335 111.295 174.487 110.908C174.64 110.518 174.716 110.035 174.716 109.461V108.002C174.716 107.549 174.673 107.158 174.587 106.83C174.501 106.502 174.372 106.232 174.2 106.021C174.029 105.811 173.812 105.654 173.55 105.553C173.288 105.447 172.982 105.395 172.63 105.395H171.048V104.469H172.63C173.111 104.469 173.544 104.545 173.931 104.697C174.318 104.846 174.65 105.07 174.927 105.371C175.204 105.668 175.415 106.037 175.56 106.479C175.708 106.92 175.782 107.432 175.782 108.014V109.461C175.782 110.043 175.708 110.555 175.56 110.996C175.415 111.438 175.202 111.807 174.921 112.104C174.64 112.4 174.298 112.625 173.896 112.777C173.497 112.926 173.042 113 172.53 113ZM171.675 104.469V113H170.597V104.469H171.675ZM182.64 112.08V113H178.937V112.08H182.64ZM179.13 104.469V113H178.052V104.469H179.13ZM182.142 108.137V109.057H178.937V108.137H182.142ZM182.582 104.469V105.395H178.937V104.469H182.582ZM189.041 112.08V113H185.502V112.08H189.041ZM185.695 104.469V113H184.617V104.469H185.695ZM198.866 112.08V113H195.163V112.08H198.866ZM195.356 104.469V113H194.278V104.469H195.356ZM198.368 108.137V109.057H195.163V108.137H198.368ZM198.807 104.469V105.395H195.163V104.469H198.807ZM205.114 110.287H206.193C206.165 110.873 206.046 111.379 205.835 111.805C205.628 112.227 205.325 112.551 204.927 112.777C204.532 113.004 204.038 113.117 203.445 113.117C203.019 113.117 202.634 113.033 202.29 112.865C201.946 112.697 201.652 112.457 201.405 112.145C201.163 111.828 200.978 111.449 200.849 111.008C200.72 110.566 200.655 110.07 200.655 109.52V107.943C200.655 107.396 200.72 106.902 200.849 106.461C200.982 106.02 201.171 105.643 201.417 105.33C201.667 105.014 201.97 104.771 202.325 104.604C202.685 104.436 203.091 104.352 203.544 104.352C204.099 104.352 204.568 104.463 204.95 104.686C205.337 104.904 205.634 105.227 205.841 105.652C206.052 106.074 206.169 106.592 206.193 107.205H205.114C205.087 106.756 205.017 106.391 204.904 106.109C204.79 105.824 204.622 105.615 204.4 105.482C204.181 105.346 203.896 105.277 203.544 105.277C203.232 105.277 202.96 105.34 202.73 105.465C202.503 105.59 202.316 105.77 202.167 106.004C202.023 106.234 201.913 106.514 201.839 106.842C201.769 107.166 201.734 107.529 201.734 107.932V109.52C201.734 109.895 201.763 110.244 201.821 110.568C201.884 110.893 201.982 111.178 202.114 111.424C202.251 111.666 202.429 111.855 202.648 111.992C202.866 112.129 203.132 112.197 203.445 112.197C203.839 112.197 204.152 112.133 204.382 112.004C204.613 111.875 204.782 111.67 204.892 111.389C205.005 111.107 205.079 110.74 205.114 110.287ZM212.265 104.469H213.343V110.475C213.343 111.115 213.22 111.629 212.974 112.016C212.728 112.402 212.404 112.684 212.002 112.859C211.603 113.031 211.173 113.117 210.712 113.117C210.22 113.117 209.777 113.031 209.382 112.859C208.988 112.684 208.673 112.402 208.439 112.016C208.209 111.629 208.093 111.115 208.093 110.475V104.469H209.166V110.475C209.166 110.92 209.228 111.268 209.353 111.518C209.482 111.768 209.662 111.943 209.892 112.045C210.127 112.146 210.4 112.197 210.712 112.197C211.029 112.197 211.302 112.146 211.533 112.045C211.767 111.943 211.947 111.768 212.072 111.518C212.201 111.268 212.265 110.92 212.265 110.475V104.469ZM218.227 105.225L215.895 113H214.793L217.541 104.469H218.232L218.227 105.225ZM220.113 113L217.781 105.225L217.77 104.469H218.467L221.215 113H220.113ZM220.113 109.842V110.768H216V109.842H220.113ZM224.92 113H223.467L223.479 112.08H224.92C225.432 112.08 225.848 111.982 226.168 111.787C226.489 111.588 226.725 111.295 226.877 110.908C227.03 110.518 227.106 110.035 227.106 109.461V108.002C227.106 107.549 227.063 107.158 226.977 106.83C226.891 106.502 226.762 106.232 226.59 106.021C226.418 105.811 226.202 105.654 225.94 105.553C225.678 105.447 225.371 105.395 225.02 105.395H223.438V104.469H225.02C225.5 104.469 225.934 104.545 226.321 104.697C226.707 104.846 227.039 105.07 227.317 105.371C227.594 105.668 227.805 106.037 227.95 106.479C228.098 106.92 228.172 107.432 228.172 108.014V109.461C228.172 110.043 228.098 110.555 227.95 110.996C227.805 111.438 227.592 111.807 227.311 112.104C227.03 112.4 226.688 112.625 226.286 112.777C225.887 112.926 225.432 113 224.92 113ZM224.065 104.469V113H222.987V104.469H224.065ZM235.991 107.996V109.479C235.991 110.08 235.925 110.609 235.792 111.066C235.663 111.52 235.473 111.898 235.223 112.203C234.973 112.508 234.673 112.736 234.321 112.889C233.97 113.041 233.573 113.117 233.132 113.117C232.706 113.117 232.317 113.041 231.966 112.889C231.614 112.736 231.311 112.508 231.057 112.203C230.804 111.898 230.606 111.52 230.466 111.066C230.329 110.609 230.261 110.08 230.261 109.479V107.996C230.261 107.395 230.329 106.867 230.466 106.414C230.602 105.957 230.798 105.576 231.052 105.271C231.305 104.967 231.608 104.738 231.96 104.586C232.311 104.43 232.7 104.352 233.126 104.352C233.567 104.352 233.964 104.43 234.315 104.586C234.671 104.738 234.971 104.967 235.218 105.271C235.468 105.576 235.659 105.957 235.792 106.414C235.925 106.867 235.991 107.395 235.991 107.996ZM234.925 109.479V107.984C234.925 107.516 234.886 107.113 234.807 106.777C234.729 106.438 234.614 106.16 234.462 105.945C234.309 105.73 234.122 105.572 233.899 105.471C233.677 105.365 233.419 105.312 233.126 105.312C232.848 105.312 232.598 105.365 232.376 105.471C232.157 105.572 231.97 105.73 231.813 105.945C231.657 106.16 231.536 106.438 231.45 106.777C231.368 107.113 231.327 107.516 231.327 107.984V109.479C231.327 109.951 231.368 110.357 231.45 110.697C231.536 111.033 231.657 111.311 231.813 111.529C231.973 111.744 232.165 111.904 232.387 112.01C232.61 112.111 232.858 112.162 233.132 112.162C233.425 112.162 233.682 112.111 233.905 112.01C234.132 111.904 234.319 111.744 234.468 111.529C234.62 111.311 234.733 111.033 234.807 110.697C234.886 110.357 234.925 109.951 234.925 109.479ZM238.267 104.469H240.652C241.206 104.469 241.671 104.566 242.046 104.762C242.425 104.957 242.71 105.246 242.902 105.629C243.097 106.008 243.195 106.475 243.195 107.029C243.195 107.42 243.13 107.777 243.001 108.102C242.872 108.422 242.685 108.695 242.439 108.922C242.193 109.145 241.894 109.311 241.542 109.42L241.249 109.543H239.122L239.111 108.623H240.64C240.968 108.623 241.241 108.553 241.46 108.412C241.679 108.268 241.843 108.074 241.952 107.832C242.062 107.59 242.116 107.322 242.116 107.029C242.116 106.701 242.068 106.414 241.97 106.168C241.872 105.922 241.716 105.732 241.501 105.6C241.29 105.463 241.007 105.395 240.652 105.395H239.345V113H238.267V104.469ZM242.363 113L240.663 109.133L241.782 109.127L243.517 112.93V113H242.363Z" fill="#DC1414"/>
<path fill-rule="evenodd" clip-rule="evenodd" d="M61.7312 36.0569C61.7312 36.0569 54.1666 29.6861 54.1666 23.4173C54.1666 21.2072 55.0446 19.0876 56.6074 17.5248C58.1702 15.962 60.2898 15.084 62.5 15.084C64.7101 15.084 66.8297 15.962 68.3925 17.5248C69.9553 19.0876 70.8333 21.2072 70.8333 23.4173C70.8333 29.6861 63.2687 36.0569 63.2687 36.0569C62.8479 36.4444 62.1552 36.4402 61.7312 36.0569ZM62.5 27.0632C62.9787 27.0632 63.4528 26.9688 63.8952 26.7856C64.3375 26.6024 64.7394 26.3339 65.078 25.9953C65.4165 25.6568 65.6851 25.2548 65.8683 24.8125C66.0515 24.3702 66.1458 23.8961 66.1458 23.4173C66.1458 22.9385 66.0515 22.4645 65.8683 22.0221C65.6851 21.5798 65.4165 21.1779 65.078 20.8393C64.7394 20.5008 64.3375 20.2322 63.8952 20.049C63.4528 19.8658 62.9787 19.7715 62.5 19.7715C61.533 19.7715 60.6057 20.1556 59.922 20.8393C59.2382 21.5231 58.8541 22.4504 58.8541 23.4173C58.8541 24.3843 59.2382 25.3116 59.922 25.9953C60.6057 26.679 61.533 27.0632 62.5 27.0632Z" fill="#FF2828"/>
<path fill-rule="evenodd" clip-rule="evenodd" d="M187.731 241.057C187.731 241.057 180.167 234.686 180.167 228.417C180.167 226.207 181.045 224.088 182.607 222.525C184.17 220.962 186.29 220.084 188.5 220.084C190.71 220.084 192.83 220.962 194.393 222.525C195.955 224.088 196.833 226.207 196.833 228.417C196.833 234.686 189.269 241.057 189.269 241.057C188.848 241.444 188.155 241.44 187.731 241.057ZM188.5 232.063C188.979 232.063 189.453 231.969 189.895 231.786C190.337 231.602 190.739 231.334 191.078 230.995C191.417 230.657 191.685 230.255 191.868 229.813C192.051 229.37 192.146 228.896 192.146 228.417C192.146 227.939 192.051 227.464 191.868 227.022C191.685 226.58 191.417 226.178 191.078 225.839C190.739 225.501 190.337 225.232 189.895 225.049C189.453 224.866 188.979 224.771 188.5 224.771C187.533 224.771 186.606 225.156 185.922 225.839C185.238 226.523 184.854 227.45 184.854 228.417C184.854 229.384 185.238 230.312 185.922 230.995C186.606 231.679 187.533 232.063 188.5 232.063Z" fill="#FF2828"/>
<defs>
<linearGradient id="paint0_linear_1067_2951" x1="185.379" y1="197.543" x2="185.379" y2="302.465" gradientUnits="userSpaceOnUse">
<stop stop-color="#91C69B"/>
<stop offset="0.477344" stop-color="#58B2C7"/>
</linearGradient>
<linearGradient id="paint1_linear_1067_2951" x1="62.5" y1="32" x2="62.5" y2="42" gradientUnits="userSpaceOnUse">
<stop stop-color="#91C69B"/>
<stop offset="0.477344" stop-color="#58B2C7"/>
</linearGradient>
<linearGradient id="paint2_linear_1067_2951" x1="62.5" y1="32" x2="62.5" y2="42" gradientUnits="userSpaceOnUse">
<stop stop-color="#91C69B"/>
<stop offset="0.477344" stop-color="#58B2C7"/>
</linearGradient>
<clipPath id="clip0_1067_2951">
<rect width="308" height="302.467" fill="white" transform="translate(-8)"/>
</clipPath>
</defs>
</svg>
